# xmcd CD database file
#
# Track frame offsets:
#	150
#	13466
#	31107
#	57390
#	71087
#	85922
#	109722
#	117840
#	148644
#	168202
#	187561
#	221227
#	243480
#	256505
#	280312
#
# Disc length: 3851 seconds
#
# Revision: 0
# Processed by: cddbd v1.5.2PL0 Copyright (c) Steve Scherf et al.
# Submitted via: CDex 1.51
#
DISCID=d00f090f
DTITLE=Eric McCarl - Seeking The Light Within
DYEAR=2002
DGENRE=New Age
TTITLE0=All This Wonder
TTITLE1=Alone
TTITLE2=Mind Of A Child
TTITLE3=Little Star
TTITLE4=Ballet
TTITLE5=To Be A Man
TTITLE6=Music Box
TTITLE7=Colours
TTITLE8=Amanda Paige
TTITLE9=Whispers
TTITLE10=Take Me Home
TTITLE11=R
TTITLE12=Beyond The Sea
TTITLE13=The Wedding
TTITLE14=Hello Aja
EXTD=YEAR: 2002
EXTT0=
EXTT1=
EXTT2=
EXTT3=
EXTT4=
EXTT5=
EXTT6=
EXTT7=
EXTT8=
EXTT9=
EXTT10=
EXTT11=
EXTT12=
EXTT13=
EXTT14=
PLAYORDER=
